<svg id="Logos" xmlns="http://www.w3.org/2000/svg" xmlns:xlink="http://www.w3.org/1999/xlink" viewBox="0 0 425.19685 127.55906"><defs><style>.cls-1{fill:#9563c7;}.cls-2{fill:#7032ac;}.cls-3{fill:url(#linear-gradient);}</style><linearGradient id="linear-gradient" x1="-599.99616" y1="723.95079" x2="-598.83241" y2="723.95079" gradientTransform="matrix(-76.84325, -76.84325, 90.4936, -88.67258, -111507.88069, 18196.69836)" gradientUnits="userSpaceOnUse"><stop offset="0.04315" stop-color="#501d83"/><stop offset="0.17356" stop-color="#6b399d"/><stop offset="0.49616" stop-color="#8654b8"/><stop offset="0.65211" stop-color="#9563c7"/><stop offset="1" stop-color="#9563c7"/></linearGradient></defs><path class="cls-1" d="M188.11816,54.78l-3.63032,26.03072a52.98215,52.98215,0,0,1-20.16,3.93957c-16.453,0-25.722-8.49651-25.722-23.48166,0-18.38352,13.82659-30.74229,34.29587-30.74229a56.8812,56.8812,0,0,1,16.221,2.47175l-4.55751,14.36664a33.81181,33.81181,0,0,0-10.89095-1.85324c-11.66351,0-15.52577,6.41132-15.52577,13.51733,0,7.87914,4.71157,10.73632,9.42313,10.73632a11.91022,11.91022,0,0,0,1.85439-.15462L171.51113,54.78Z"/><path class="cls-1" d="M207.03662,69.07045c1.15856,2.1625,4.09363,2.85832,7.49257,2.85832a36.56691,36.56691,0,0,0,11.04558-1.62244l.61794,11.81757a53.21335,53.21335,0,0,1-15.6804,2.62638c-12.66745,0-21.08722-5.56088-21.08722-18.46084,0-13.672,10.7369-24.48559,25.1041-24.48559,9.80971,0,16.607,5.25276,16.607,13.82658C231.13622,68.37463,217.30963,70.1517,207.03662,69.07045Zm9.50045-13.59464c0-1.46782-1.15857-2.23982-2.62581-2.23982-3.70763,0-5.63876,2.9345-6.41133,5.87013C210.12631,59.41538,216.53707,59.49269,216.53707,55.47581Z"/><path class="cls-1" d="M277.0126,69.30239c-.386,2.9345,1.54513,3.39838,4.32557,2.70256l-1.62188,11.27751a38.88166,38.88166,0,0,1-10.8142,1.46782c-8.65114,0-12.04952-5.25276-11.12289-11.50832l1.85381-12.9a3.12614,3.12614,0,0,0-3.01238-3.78494,4.26708,4.26708,0,0,0-3.86225,3.78494l-3.32107,23.40434H230.66722l5.71607-40.93856h18.15216l-.5412,4.01689a18.91435,18.91435,0,0,1,12.9-5.02082c8.26457,0,13.20808,6.02476,12.04952,14.13584Z"/><path class="cls-1" d="M300.25606,69.07045c1.15857,2.1625,4.09363,2.85832,7.49258,2.85832a36.567,36.567,0,0,0,11.04558-1.62244l.61793,11.81757a53.21329,53.21329,0,0,1-15.6804,2.62638c-12.66745,0-21.08721-5.56088-21.08721-18.46084,0-13.672,10.73689-24.48559,25.1041-24.48559,9.8097,0,16.607,5.25276,16.607,13.82658C324.35566,68.37463,310.52908,70.1517,300.25606,69.07045Zm9.50045-13.59464c0-1.46782-1.15856-2.23982-2.62581-2.23982-3.70763,0-5.63876,2.9345-6.41132,5.87013C303.34576,59.41538,309.75651,59.49269,309.75651,55.47581Z"/><path class="cls-1" d="M328.90805,42.80778h18.69278L344.2792,66.21213c-.30868,2.08632.61794,3.78494,2.47175,3.78494,4.63483,0,9.19177-10.19626,4.63483-27.18929H369.7693c7.41526,36.227-15.835,41.9425-27.57529,41.9425-12.5907,0-18.15215-6.56481-16.6849-17.4569Z"/><path class="cls-1" d="M402.51321,46.82467l.5412-4.01689h18.69277l-3.70763,26.34c-.38656,3.01181,1.46782,3.553,4.325,2.85719l-1.6213,11.27751a38.88608,38.88608,0,0,1-10.81478,1.46782c-5.7155,0-9.34582-2.62638-10.58226-6.41132-3.24375,3.86225-7.33795,6.41132-13.20808,6.41132-8.65114,0-13.672-8.03263-13.672-18.07427,0-13.82658,9.03714-24.87216,20.31466-24.87216A11.28708,11.28708,0,0,1,402.51321,46.82467Zm-.69468,15.29326c0-3.24375-1.77707-5.79281-4.55751-5.79281-3.63032,0-6.48864,3.70763-6.48864,7.95645,0,3.24375,1.69919,5.79282,4.55751,5.79282C398.8829,70.07439,401.81853,66.36676,401.81853,62.11793Z"/><path class="cls-2" d="M142.75,101.80171l-.777,5.53388h11.10214l-.78093,5.49771h-11.066l-1.20174,8.62193h-7.11318L136.41594,96.304h19.69151l-.78093,5.4977Zm16.01494-5.4977h7.115l-3.50444,25.15122h-7.11318Zm35.35788,0-3.50443,25.15122h-5.85771l-9.13847-13.79582-1.92748,13.79582h-6.97027L170.22708,96.304h5.85771l9.17075,13.76144,1.8952-13.76144Zm18.65371,20.265H202.06876l-2.61136,4.88624h-7.51117L206.5528,96.304h7.00645l7.59952,25.15122H214.08Zm-1.39507-5.24625-2.18455-8.157-4.319,8.157ZM249.88678,96.304l-3.50443,25.15122h-5.85771L231.388,107.65941l-1.92928,13.79582h-6.97027L225.991,96.304h5.85771l9.17075,13.76144L242.9147,96.304Zm7.831,24.272a11.18609,11.18609,0,0,1-4.6546-3.8985,11.35058,11.35058,0,0,1-1.89705-5.78534,14.65257,14.65257,0,0,1,1.52188-7.76083,12.82565,12.82565,0,0,1,5.25922-5.391,16.29553,16.29553,0,0,1,8.07572-1.9393,15.15237,15.15237,0,0,1,6.25517,1.2392,9.52771,9.52771,0,0,1,4.23885,3.50413l-4.89192,4.09569a6.51285,6.51285,0,0,0-5.71039-2.94694,7.55172,7.55172,0,0,0-4.17128,1.13246,7.0963,7.0963,0,0,0-2.66763,3.126,9.338,9.338,0,0,0-.75148,4.47378,5.68235,5.68235,0,0,0,1.90107,4.09569,6.6575,6.6575,0,0,0,4.58434,1.54493,7.39677,7.39677,0,0,0,5.96914-2.90895l4.45392,4.13006a10.948,10.948,0,0,1-4.56157,3.57649,16.21093,16.21093,0,0,1-6.18688,1.09448A15.8173,15.8173,0,0,1,257.71776,120.576Zm28.54055-18.77432-.5689,4.24041h11.1745l-.71912,5.3168H284.93411l-.61837,4.59861H297.5019l-.81711,5.4977H276.52835L280.031,96.304h19.69151l-.78094,5.4977Z"/><path class="cls-3" d="M91.40141,83.39151H47.25988a6.62455,6.62455,0,0,1-2.63983-.5264,6.83208,6.83208,0,0,1-2.966-2.4783,6.545,6.545,0,0,1-1.1276-3.6721,7.01389,7.01389,0,0,1,.08346-1.0717l3.84279-27.4975a5.98565,5.98565,0,0,1,.74291-2.1,7.40479,7.40479,0,0,1,6.29681-3.6042H95.00963a18.84228,18.84228,0,1,0,.029-37.68455q-.01449,0-.029,0H51.49246A45.097,45.097,0,0,0,17.05428,20.79963,43.90164,43.90164,0,0,0,7.20682,42.41174L3.365,69.90363A44.37853,44.37853,0,0,0,47.2283,121.07614l.03163,0H91.40141a18.84228,18.84228,0,1,0,.029-37.68455h-.029Z"/><path class="cls-1" d="M51.10216,42.44129H95.00963a18.84229,18.84229,0,0,0,0-37.68458H51.10216a18.84229,18.84229,0,1,0-.00229,37.68458h.00229"/><path class="cls-1" d="M110.06268,104.83938l3.60818-25.84192a18.84228,18.84228,0,1,0-37.31394-5.27217l-.00852.061L72.74022,99.62822a18.84228,18.84228,0,1,0,37.31394,5.27216l.00852-.061"/></svg>